<svg width="48" height="48" viewBox="0 0 48 48" fill="none" xmlns="http://www.w3.org/2000/svg">
<rect width="47.892" height="47.892" rx="23.946" fill="#121242"/>
<rect width="47.892" height="47.892" rx="23.946" fill="#121242"/>
<path d="M34.3825 17.4606C33.6142 17.8098 32.7861 18.0393 31.928 18.149C32.8061 17.6202 33.4845 16.7821 33.8038 15.7744C32.9757 16.2733 32.0577 16.6225 31.0899 16.822C30.3017 15.964 29.1942 15.4651 27.937 15.4651C25.5923 15.4651 23.6766 17.3808 23.6766 19.7454C23.6766 20.0847 23.7165 20.4139 23.7864 20.7232C20.2344 20.5436 17.0715 18.8375 14.9663 16.2533C14.5971 16.8819 14.3876 17.6202 14.3876 18.3985C14.3876 19.8851 15.1359 21.2022 16.2933 21.9505C15.5849 21.9505 14.9264 21.7509 14.3477 21.4516V21.4815C14.3477 23.5568 15.8243 25.2929 17.7799 25.6821C17.1521 25.8539 16.4929 25.8778 15.8543 25.7519C16.1253 26.6025 16.656 27.3467 17.3719 27.88C18.0877 28.4134 18.9527 28.7089 19.8453 28.7252C18.3323 29.9229 16.4569 30.5704 14.5273 30.5611C14.188 30.5611 13.8488 30.5411 13.5095 30.5012C15.4053 31.7184 17.6602 32.4269 20.0747 32.4269C27.937 32.4269 32.2573 25.9016 32.2573 20.2443C32.2573 20.0547 32.2573 19.8751 32.2473 19.6856C33.0854 19.0869 33.8038 18.3286 34.3825 17.4606Z" fill="white"/>
</svg>
